<?xml version="1.0" standalone="no"?>
<!DOCTYPE svg PUBLIC "-//W3C//DTD SVG 20010904//EN"
 "http://www.w3.org/TR/2001/REC-SVG-20010904/DTD/svg10.dtd">
<svg version="1.0" xmlns="http://www.w3.org/2000/svg"
 width="114.000000pt" height="43.000000pt" viewBox="0 0 114.000000 43.000000"
 preserveAspectRatio="xMidYMid meet">
<metadata>
Created by potrace 1.13, written by Peter Selinger 2001-2015
</metadata>
<g transform="translate(0.000000,43.000000) scale(0.100000,-0.100000)"
fill="#000000" stroke="none">
<path d="M720 335 c0 -30 -2 -55 -4 -55 -2 0 -17 7 -32 15 -55 29 -137 10
-169 -39 -39 -59 -24 -156 29 -191 38 -25 99 -30 137 -11 39 20 39 20 39 0 0
-9 7 -14 18 -12 15 3 17 21 20 176 2 167 2 172 -18 172 -18 0 -20 -6 -20 -55z
m-38 -85 c32 -25 42 -71 24 -115 -17 -39 -42 -55 -88 -55 -80 1 -117 95 -62
159 31 38 87 43 126 11z"/>
<path d="M34 287 c-2 -7 -3 -65 -2 -127 3 -100 5 -115 21 -118 15 -3 17 5 17
55 0 107 30 163 87 163 16 0 23 6 23 20 0 25 -37 27 -80 5 -27 -14 -30 -14
-30 0 0 18 -29 20 -36 2z"/>
<path d="M260 287 c-33 -17 -70 -74 -70 -109 0 -42 25 -94 54 -113 38 -25 99
-30 137 -11 39 20 39 20 39 0 0 -9 7 -14 18 -12 15 3 17 19 20 131 2 122 2
127 -18 127 -11 0 -20 -6 -20 -14 0 -13 -4 -13 -27 0 -34 17 -100 18 -133 1z
m120 -37 c24 -13 43 -70 34 -104 -15 -60 -111 -89 -154 -46 -61 61 -23 160 61
160 22 0 49 -4 59 -10z"/>
<path d="M860 293 c1 -5 23 -32 50 -62 l48 -55 -54 -62 c-30 -33 -54 -64 -54
-68 0 -21 42 1 88 46 l53 53 47 -54 c37 -42 52 -52 72 -49 24 3 22 6 -35 66
-43 47 -57 67 -50 77 6 7 30 36 53 64 43 50 43 51 19 51 -18 0 -38 -14 -66
-47 l-41 -48 -46 48 c-39 41 -85 63 -84 40z"/>
</g>
</svg>
